<?xml version="1.0" encoding="UTF-8"?><!DOCTYPE svg PUBLIC "-//W3C//DTD SVG 1.1//EN" "http://www.w3.org/Graphics/SVG/1.1/DTD/svg11.dtd"><svg xmlns="http://www.w3.org/2000/svg" xmlns:xlink="http://www.w3.org/1999/xlink" version="1.1" width="16" height="16" viewBox="0 0 16 16"><path fill="#444" d="M14.2 14c.6-.5 1.8-1.6 1.8-3.2 0-1.4-1.2-2.6-2.8-3.3.5-.6.8-1.5.8-2.4C14 2.3 11.1 0 7.4 0 3.9 0 0 2.1 0 5.1c0 2.1 1.6 3.6 2.3 4.2-.1 1.2-.6 1.7-.6 1.7L.5 12H2c1.2 0 2.2-.3 3-.7.3 1.9 2.5 3.4 5.3 3.4h.5c.6.5 1.8 1.3 3.5 1.3h1.4l-1.1-.9s-.3-.3-.4-1.1zm-3.9-.3C8 13.7 6 12.4 6 10.9v-.2c.2-.2.4-.3.5-.5h.7c2.1 0 4-.7 5.2-1.9 1.5.5 2.6 1.5 2.6 2.5s-.9 2-1.7 2.5l-.3.2v.3c0 .5.2.8.3 1.1-1-.2-1.7-.7-1.9-1l-.1-.2h-1zM7.4 1C10.5 1 13 2.9 13 5.1s-2.6 4.1-5.8 4.1H6.1l-.1.2c-.3.4-1.5 1.2-3.1 1.5.1-.4.1-1 .1-1.8v-.3C2 8 .9 6.6.9 5.2.9 3 4.1 1 7.4 1z"/><metadata><rdf:RDF xmlns:rdf="http://www.w3.org/1999/02/22-rdf-syntax-ns#" xmlns:rdfs="http://www.w3.org/2000/01/rdf-schema#" xmlns:dc="http://purl.org/dc/elements/1.1/"><rdf:Description about="https://iconscout.com/legal#licenses" dc:title="comments,o" dc:description="comments,o" dc:publisher="Iconscout" dc:date="2017-09-19" dc:format="image/svg+xml" dc:language="en"><dc:creator><rdf:Bag><rdf:li>Vaadin Icons</rdf:li></rdf:Bag></dc:creator></rdf:Description></rdf:RDF></metadata></svg>