<?xml version="1.0" encoding="UTF-8"?><!DOCTYPE svg PUBLIC "-//W3C//DTD SVG 1.1//EN" "http://www.w3.org/Graphics/SVG/1.1/DTD/svg11.dtd"><svg xmlns="http://www.w3.org/2000/svg" xmlns:xlink="http://www.w3.org/1999/xlink" width="25px" height="25px" version="1.1" viewBox="0 0 48 48"  xml:space="preserve"><g id="Expanded"><path d="M42 48H28V35h-8v13H6V27a1 1 0 1 1 2 0v19h10V33h12v13h10V28a1 1 0 1 1 2 0v20z"/><path d="M47 27a.997.997 0 0 1-.691-.277L24 5.384 1.691 26.723a1 1 0 0 1-1.383-1.445L24 2.616l23.691 22.661A1 1 0 0 1 47 27z"/><path d="M39 15a1 1 0 0 1-1-1V8h-6a1 1 0 1 1 0-2h8v8a1 1 0 0 1-1 1z"/></g><metadata><rdf:RDF xmlns:rdf="http://www.w3.org/1999/02/22-rdf-syntax-ns#" xmlns:rdfs="http://www.w3.org/2000/01/rdf-schema#" xmlns:dc="http://purl.org/dc/elements/1.1/"><rdf:Description about="https://iconscout.com/legal#licenses" dc:title="home,house,streamline" dc:description="home,house,streamline" dc:publisher="Iconscout" dc:date="2017-09-19" dc:format="image/svg+xml" dc:language="en"><dc:creator><rdf:Bag><rdf:li>Vincent Le Moign</rdf:li></rdf:Bag></dc:creator></rdf:Description></rdf:RDF></metadata></svg>