<?xml version="1.0" encoding="UTF-8" standalone="no"?>
<svg xmlns:dc="http://purl.org/dc/elements/1.1/" xmlns:cc="http://creativecommons.org/ns#" xmlns:rdf="http://www.w3.org/1999/02/22-rdf-syntax-ns#" xmlns:svg="http://www.w3.org/2000/svg" xmlns="http://www.w3.org/2000/svg" xmlns:sodipodi="http://sodipodi.sourceforge.net/DTD/sodipodi-0.dtd" xmlns:inkscape="http://www.inkscape.org/namespaces/inkscape" width="40px" height="30px" id="svg6521" version="1.1" inkscape:version="0.48.4 r9939" sodipodi:docname="6 camera photo video capture device streamline photography.svg">
  <defs id="defs3"/>
  <sodipodi:namedview inkscape:document-units="mm" id="base" pagecolor="#ffffff" bordercolor="#666666" borderopacity="1.0" inkscape:pageopacity="0.0" inkscape:pageshadow="2" inkscape:zoom="10.953726" inkscape:cx="16.106907" inkscape:cy="21.066499" inkscape:current-layer="g4090" showgrid="true" units="px" inkscape:snap-global="false" inkscape:window-width="1366" inkscape:window-height="705" inkscape:window-x="-8" inkscape:window-y="-8" inkscape:window-maximized="1">
    <inkscape:grid type="xygrid" id="grid6578" empspacing="5" visible="true" enabled="true" snapvisiblegridlinesonly="true"/>
  </sodipodi:namedview>
  
  <g inkscape:label="Layer 1" inkscape:groupmode="layer" id="layer1" transform="translate(0,-1016.3622)">
    <g transform="translate(-34.691877,-0.85214846)" id="g4257">
      <g transform="translate(0.2701785,-1.5606562)" id="g4259"/>
    </g>
    <g id="g4771" transform="translate(70.968035,36.892948)"/>
    <g id="g4698" transform="translate(-38.238648,4.0613583)">
      <g id="g4700" transform="translate(0.2701785,-1.5606562)"/>
    </g>
    <g id="g4607" transform="translate(-0.33383481,1.0405e-4)"/>
    <g id="g4173" transform="translate(-36.96601,0.5040528)"/>
    <g transform="translate(-34.40275,-2.4127622)" id="g4183"/>
    <g id="g4651" transform="translate(-6.004062,1.968177)"/>
    <g transform="translate(-333.62879,50.63262)" id="g7096">
      <g id="g4088" transform="translate(297.31112,-49.57196)">
        <g id="g4090" transform="translate(0.2701785,-1.5606562)">
          <path style="font-size:medium;font-style:normal;font-variant:normal;font-weight:normal;font-stretch:normal;text-indent:0;text-align:start;text-decoration:none;line-height:normal;letter-spacing:normal;word-spacing:normal;text-transform:none;direction:ltr;block-progression:tb;writing-mode:lr-tb;text-anchor:start;baseline-shift:baseline;color:#000000;fill:#000000;fill-opacity:1;stroke:none;stroke-width:1;marker:none;visibility:visible;display:inline;overflow:visible;enable-background:accumulate;font-family:Sans;-inkscape-font-specification:Sans" d="M 6.40625 7 C 5.063511 7 3.96875 8.0947 3.96875 9.4375 L 3.96875 23.96875 A 0.50005 0.50005 0 0 0 3.96875 24.03125 L 3.96875 26.5625 C 3.96875 27.9053 5.06348 29 6.40625 29 L 30.5 29 C 31.84277 29 32.9375 27.9053 32.9375 26.5625 L 32.9375 15.21875 A 0.50005 0.50005 0 0 0 32.9375 15.1875 A 0.50005 0.50005 0 0 0 32.9375 14.78125 A 0.50005 0.50005 0 0 0 32.9375 14.75 L 32.9375 9.4375 C 32.9375 8.0947 31.842739 7 30.5 7 L 6.40625 7 z M 6.40625 8 L 30.5 8 C 31.306069 8 31.9375 8.6315 31.9375 9.4375 L 31.9375 14.75 L 24.78125 19.21875 L 23.9375 15.875 A 0.50005 0.50005 0 0 0 23.15625 15.625 L 15.65625 21.25 L 13.90625 17.78125 A 0.50005 0.50005 0 0 0 13.1875 17.59375 L 4.96875 23.0625 L 4.96875 9.4375 C 4.96875 8.6315 5.600181 8 6.40625 8 z M 12.9375 10.03125 C 11.56271 10.03125 10.4375 11.15646 10.4375 12.53125 C 10.4375 13.90604 11.56271 15.03125 12.9375 15.03125 C 14.31229 15.03125 15.4375 13.90604 15.4375 12.53125 C 15.4375 11.15646 14.31229 10.03125 12.9375 10.03125 z M 12.9375 11.03125 C 13.77185 11.03125 14.4375 11.6969 14.4375 12.53125 C 14.4375 13.3656 13.77185 14.03125 12.9375 14.03125 C 12.10315 14.03125 11.4375 13.3656 11.4375 12.53125 C 11.4375 11.6969 12.10315 11.03125 12.9375 11.03125 z M 31.9375 15.9375 L 31.9375 26.5625 C 31.9375 27.3685 31.306038 28 30.5 28 L 6.40625 28 C 5.600212 28 4.96875 27.3685 4.96875 26.5625 L 4.96875 24.28125 L 13.25 18.75 L 15 22.21875 A 0.50005 0.50005 0 0 0 15.75 22.40625 L 23.15625 16.84375 L 23.96875 20.125 A 0.50005 0.50005 0 0 0 24.71875 20.4375 L 31.9375 15.9375 z " transform="translate(36.047491,1016.8622)" id="rect4092"/>
        </g>
      </g>
    </g>
  </g>

	
	
	<metadata>
		<rdf:RDF xmlns:rdf="http://www.w3.org/1999/02/22-rdf-syntax-ns#" xmlns:rdfs="http://www.w3.org/2000/01/rdf-schema#" xmlns:dc="http://purl.org/dc/elements/1.1/">
			<rdf:Description about="https://iconscout.com/legal#licenses" dc:title="Gallery, Photo, Video, Image, Picture, Streamline, Photography" dc:description="Gallery, Photo, Video, Image, Picture, Streamline, Photography" dc:publisher="Iconscout" dc:date="2016-12-14" dc:format="image/svg+xml" dc:language="en">
				<dc:creator>
					<rdf:Bag>
						<rdf:li>Mohit Gandhi</rdf:li>
					</rdf:Bag>
				</dc:creator>
			</rdf:Description>
		</rdf:RDF>
    </metadata></svg>
