<?xml version="1.0" encoding="UTF-8" standalone="no"?>
<svg xmlns:dc="http://purl.org/dc/elements/1.1/" xmlns:cc="http://creativecommons.org/ns#" xmlns:rdf="http://www.w3.org/1999/02/22-rdf-syntax-ns#" xmlns:svg="http://www.w3.org/2000/svg" xmlns="http://www.w3.org/2000/svg" xmlns:sodipodi="http://sodipodi.sourceforge.net/DTD/sodipodi-0.dtd" xmlns:inkscape="http://www.inkscape.org/namespaces/inkscape" width="25px" height="25px" viewBox="0 0 32 32.000001" id="svg2" version="1.1" inkscape:version="0.91 r13725" sodipodi:docname="07 office mail email letter envelope message messages.svg">
  <defs id="defs4">
    <pattern y="0" x="0" height="6" width="6" patternUnits="userSpaceOnUse" id="EMFhbasepattern"/>
    <pattern y="0" x="0" height="6" width="6" patternUnits="userSpaceOnUse" id="EMFhbasepattern-1"/>
    <inkscape:path-effect effect="spiro" id="path-effect4381-9-5-8" is_visible="true"/>
  </defs>
  <sodipodi:namedview id="base" pagecolor="#ffffff" bordercolor="#666666" borderopacity="1.0" inkscape:pageopacity="0.0" inkscape:pageshadow="2" inkscape:zoom="15.839192" inkscape:cx="-6.4958563" inkscape:cy="23.527844" inkscape:document-units="px" inkscape:current-layer="layer1" showgrid="true" units="px" inkscape:window-width="1366" inkscape:window-height="705" inkscape:window-x="-8" inkscape:window-y="-8" inkscape:window-maximized="1" inkscape:snap-bbox="true" inkscape:bbox-paths="true" inkscape:bbox-nodes="true" inkscape:snap-bbox-edge-midpoints="true" inkscape:snap-bbox-midpoints="true">
    <inkscape:grid type="xygrid" id="grid3470"/>
  </sodipodi:namedview>
  
  <g inkscape:label="Layer 1" inkscape:groupmode="layer" id="layer1" transform="translate(0,-1020.3622)">
    <path style="color:#000000;font-style:normal;font-variant:normal;font-weight:normal;font-stretch:normal;font-size:medium;line-height:normal;font-family:sans-serif;text-indent:0;text-align:start;text-decoration:none;text-decoration-line:none;text-decoration-style:solid;text-decoration-color:#000000;letter-spacing:normal;word-spacing:normal;text-transform:none;direction:ltr;block-progression:tb;writing-mode:lr-tb;baseline-shift:baseline;text-anchor:start;white-space:normal;clip-rule:nonzero;display:inline;overflow:visible;visibility:visible;opacity:1;isolation:auto;mix-blend-mode:normal;color-interpolation:sRGB;color-interpolation-filters:linearRGB;solid-color:#000000;solid-opacity:1;fill:#000000;fill-opacity:1;fill-rule:nonzero;stroke:none;stroke-width:1;stroke-linecap:butt;stroke-linejoin:miter;stroke-miterlimit:4;stroke-dasharray:none;stroke-dashoffset:0;stroke-opacity:1;color-rendering:auto;image-rendering:auto;shape-rendering:auto;text-rendering:auto;enable-background:accumulate" d="M 1.4550781 5.984375 L 1.4550781 5.9863281 C 1.0523057 5.9863281 0.68495143 6.1514813 0.41796875 6.4179688 C 0.2844894 6.5511937 0.17649274 6.7093031 0.1015625 6.8847656 C 0.026617268 7.0602141 -0.015625 7.2537031 -0.015625 7.4550781 L -0.015625 8.2382812 L -0.015625 24.910156 C -0.015625 25.715656 0.64953337 26.378906 1.4550781 26.378906 L 30.544922 26.378906 C 31.350467 26.378906 32.015625 25.715656 32.015625 24.910156 L 32.015625 8.2246094 L 32.015625 7.453125 C 32.015625 7.3524 32.006085 7.2554 31.986328 7.1601562 C 31.966567 7.064933 31.93591 6.9724898 31.898438 6.8847656 C 31.823507 6.7093031 31.715511 6.5511937 31.582031 6.4179688 C 31.381794 6.2181031 31.125687 6.0747479 30.839844 6.015625 C 30.74455 5.995925 30.645639 5.984375 30.544922 5.984375 L 1.4550781 5.984375 z M 1.4550781 6.9863281 L 30.544922 6.9863281 C 30.61126 6.9863281 30.673902 6.9982781 30.730469 7.0214844 C 30.731041 7.0217132 30.731851 7.0212534 30.732422 7.0214844 C 30.901282 7.0914619 31.015625 7.2566301 31.015625 7.4550781 L 31.015625 7.7128906 L 16.265625 18.275391 L 16.246094 18.291016 C 16.122767 18.399016 16.069778 18.409856 16.017578 18.410156 C 15.965378 18.410456 15.862619 18.388219 15.685547 18.261719 L 1.0429688 7.7421875 L 0.984375 7.703125 L 0.984375 7.4550781 C 0.984375 7.2566301 1.0987183 7.0914619 1.2675781 7.0214844 C 1.324305 6.9985359 1.3878864 6.9863281 1.4550781 6.9863281 z M 0.984375 8.9316406 L 15.101562 19.074219 L 15.103516 19.074219 C 15.384297 19.275519 15.688588 19.411956 16.021484 19.410156 C 16.35438 19.410156 16.662222 19.254869 16.904297 19.042969 L 16.867188 19.072266 L 31.015625 8.9414062 L 31.015625 24.910156 C 31.015625 25.178856 30.813689 25.378906 30.544922 25.378906 L 1.4550781 25.378906 C 1.1863111 25.378906 0.984375 25.178856 0.984375 24.910156 L 0.984375 8.9316406 z " transform="translate(0,1020.3622)" id="rect21255-0"/>
  </g>

	
	
	<metadata>
		<rdf:RDF xmlns:rdf="http://www.w3.org/1999/02/22-rdf-syntax-ns#" xmlns:rdfs="http://www.w3.org/2000/01/rdf-schema#" xmlns:dc="http://purl.org/dc/elements/1.1/">
			<rdf:Description about="https://iconscout.com/legal#licenses" dc:title="Office, Mail, Email, Letter, Envelope, Message, Messages" dc:description="Office, Mail, Email, Letter, Envelope, Message, Messages" dc:publisher="Iconscout" dc:date="2016-12-14" dc:format="image/svg+xml" dc:language="en">
				<dc:creator>
					<rdf:Bag>
						<rdf:li>Chamestudio</rdf:li>
					</rdf:Bag>
				</dc:creator>
			</rdf:Description>
		</rdf:RDF>
    </metadata></svg>
