<?xml version="1.0" encoding="UTF-8"?><svg xmlns="http://www.w3.org/2000/svg" xmlns:xlink="http://www.w3.org/1999/xlink" width="25px" height="25px" viewBox="0 0 24 24" version="1.1"><title>Notification</title><g id="Notification" stroke="#4A4A4A" stroke-width="1" fill="none" fill-rule="evenodd"><path d="M12.927 3.566l-.46-.066.032-.464L12.5 3V2a.5.5 0 1 0-1 0v1l.001.036.033.464-.46.066A6.501 6.501 0 0 0 5.5 10v6.5H4a1.5 1.5 0 0 0 0 3h16a1.5 1.5 0 0 0 0-3h-1.5V10a6.501 6.501 0 0 0-5.573-6.434z" id="Combined-Shape"/><path d="M10 20a2 2 0 1 0 4 0" id="Oval"/></g><metadata><rdf:RDF xmlns:rdf="http://www.w3.org/1999/02/22-rdf-syntax-ns#" xmlns:rdfs="http://www.w3.org/2000/01/rdf-schema#" xmlns:dc="http://purl.org/dc/elements/1.1/"><rdf:Description about="https://iconscout.com/legal#licenses" dc:title="notification" dc:description="notification" dc:publisher="Iconscout" dc:date="2018-06-28" dc:format="image/svg+xml" dc:language="en"><dc:creator><rdf:Bag><rdf:li>Avinash P</rdf:li></rdf:Bag></dc:creator></rdf:Description></rdf:RDF></metadata></svg>