<?xml version="1.0" encoding="UTF-8" standalone="no"?>
<svg xmlns:dc="http://purl.org/dc/elements/1.1/" xmlns:cc="http://creativecommons.org/ns#" xmlns:rdf="http://www.w3.org/1999/02/22-rdf-syntax-ns#" xmlns:svg="http://www.w3.org/2000/svg" xmlns="http://www.w3.org/2000/svg" xmlns:sodipodi="http://sodipodi.sourceforge.net/DTD/sodipodi-0.dtd" xmlns:inkscape="http://www.inkscape.org/namespaces/inkscape" width="30px" height="30px" viewBox="0 0 16 16" id="svg2" version="1.1" inkscape:version="0.91 r13725" sodipodi:docname="18.svg">
  <defs id="defs4">
    <pattern y="0" x="0" height="6" width="6" patternUnits="userSpaceOnUse" id="EMFhbasepattern"/>
  </defs>
  <sodipodi:namedview id="base" pagecolor="#ffffff" bordercolor="#666666" borderopacity="1.0" inkscape:pageopacity="0.0" inkscape:pageshadow="2" inkscape:zoom="22.627417" inkscape:cx="-1.8470339" inkscape:cy="9.0244066" inkscape:document-units="px" inkscape:current-layer="layer1" showgrid="true" units="px" inkscape:window-width="1366" inkscape:window-height="715" inkscape:window-x="-8" inkscape:window-y="-8" inkscape:window-maximized="1">
    <inkscape:grid type="xygrid" id="grid3367"/>
  </sodipodi:namedview>
  
  <g inkscape:label="Layer 1" inkscape:groupmode="layer" id="layer1" transform="translate(0,-1036.3622)">
    <g transform="matrix(-1,0,0,1,16.006262,-2.99749)" id="g5385"/>
    <path style="color:#000000;font-style:normal;font-variant:normal;font-weight:normal;font-stretch:normal;font-size:medium;line-height:normal;font-family:sans-serif;text-indent:0;text-align:start;text-decoration:none;text-decoration-line:none;text-decoration-style:solid;text-decoration-color:#000000;letter-spacing:normal;word-spacing:normal;text-transform:none;direction:ltr;block-progression:tb;writing-mode:lr-tb;baseline-shift:baseline;text-anchor:start;white-space:normal;clip-rule:nonzero;display:inline;overflow:visible;visibility:visible;opacity:1;isolation:auto;mix-blend-mode:normal;color-interpolation:sRGB;color-interpolation-filters:linearRGB;solid-color:#000000;solid-opacity:1;fill:#000000;fill-opacity:1;fill-rule:nonzero;stroke:none;stroke-width:1.00000012;stroke-linecap:butt;stroke-linejoin:miter;stroke-miterlimit:4;stroke-dasharray:none;stroke-dashoffset:0;stroke-opacity:1;color-rendering:auto;image-rendering:auto;shape-rendering:auto;text-rendering:auto;enable-background:accumulate" d="M 8 0.99804688 C 5.244501 0.99804688 3 3.2425469 3 5.9980469 C 3 9.8228469 6.6453766 13.350463 7.6464844 14.351562 L 8 14.705078 L 8.3535156 14.351562 C 9.3533153 13.351762 13 9.8328469 13 5.9980469 C 13 3.2425469 10.755499 0.99804688 8 0.99804688 z M 8 1.9980469 C 10.215063 1.9980469 12 3.7829469 12 5.9980469 C 12 8.9468469 9.2089922 11.988462 8 13.226562 C 6.791976 11.988063 4 8.9356469 4 5.9980469 C 4 3.7829469 5.7849362 1.9980469 8 1.9980469 z M 8 3.9980469 C 6.9013528 3.9980469 5.9999999 4.8993469 6 5.9980469 C 5.9999999 7.0966469 6.9013528 7.9980469 8 7.9980469 C 9.0986472 7.9980469 10 7.0966469 10 5.9980469 C 10 4.8993469 9.0986472 3.9980469 8 3.9980469 z M 8 4.9980469 C 8.558207 4.9980469 9 5.4398469 9 5.9980469 C 9 6.5562469 8.558207 6.9980469 8 6.9980469 C 7.441793 6.9980469 7 6.5562469 7 5.9980469 C 7 5.4398469 7.441793 4.9980469 8 4.9980469 z " transform="translate(0,1036.3622)" id="path4934"/>
  </g>

	
	
	<metadata>
		<rdf:RDF xmlns:rdf="http://www.w3.org/1999/02/22-rdf-syntax-ns#" xmlns:rdfs="http://www.w3.org/2000/01/rdf-schema#" xmlns:dc="http://purl.org/dc/elements/1.1/">
			<rdf:Description about="https://iconscout.com/legal#licenses" dc:title="Navigation, Location, Navigate, Find, Ui, Locate, Place" dc:description="Navigation, Location, Navigate, Find, Ui, Locate, Place" dc:publisher="Iconscout" dc:date="2016-12-14" dc:format="image/svg+xml" dc:language="en">
				<dc:creator>
					<rdf:Bag>
						<rdf:li>Chamestudio</rdf:li>
					</rdf:Bag>
				</dc:creator>
			</rdf:Description>
		</rdf:RDF>
    </metadata></svg>
