<?xml version="1.0" encoding="UTF-8"?><!DOCTYPE svg PUBLIC "-//W3C//DTD SVG 1.1//EN" "http://www.w3.org/Graphics/SVG/1.1/DTD/svg11.dtd"><svg xmlns="http://www.w3.org/2000/svg" xmlns:xlink="http://www.w3.org/1999/xlink" version="1.1" id="Layer_1" x="0px" y="0px" width="20px" height="20px" viewBox="0 0 48 48" xml:space="preserve" fill="#E6ECF0"><path d="M46.599 40.236L36.054 29.691C37.89 26.718 39 23.25 39 19.5 39 8.73 30.27 0 19.5 0S0 8.73 0 19.5 8.73 39 19.5 39c3.75 0 7.218-1.11 10.188-2.943l10.548 10.545a4.501 4.501 0 0 0 6.363-6.366zM19.5 33C12.045 33 6 26.955 6 19.5S12.045 6 19.5 6 33 12.045 33 19.5 26.955 33 19.5 33z"/><metadata><rdf:RDF xmlns:rdf="http://www.w3.org/1999/02/22-rdf-syntax-ns#" xmlns:rdfs="http://www.w3.org/2000/01/rdf-schema#" xmlns:dc="http://purl.org/dc/elements/1.1/"><rdf:Description about="https://iconscout.com/legal#licenses" dc:title="search" dc:description="search" dc:publisher="Iconscout" dc:date="2017-09-24" dc:format="image/svg+xml" dc:language="en"><dc:creator><rdf:Bag><rdf:li>Adam</rdf:li></rdf:Bag></dc:creator></rdf:Description></rdf:RDF></metadata></svg>